HIERARCHY
ROOT Hips
{
	OFFSET 51.605801 15.100290 56.121403
	CHANNELS 6 Xposition Yposition Zposition Xrotation Yrotation Zrotation
	JOINT spine
	{
		OFFSET 0.000000 -0.458068 7.965679
		CHANNELS 3 Xrotation Yrotation Zrotation
		JOINT spine1
		{
			OFFSET 0.000000 -0.000002 10.243103
			CHANNELS 3 Xrotation Yrotation Zrotation
			JOINT spine2
			{
				OFFSET 0.000000 -0.000001 9.814751
				CHANNELS 3 Xrotation Yrotation Zrotation
				JOINT Neck
				{
					OFFSET 0.000000 -1.201385 25.198601
					CHANNELS 3 Xrotation Yrotation Zrotation
					JOINT Head
					{
						OFFSET 0.000000 -0.000001 7.613152
						CHANNELS 3 Xrotation Yrotation Zrotation
						End Site
						{
							OFFSET 0.000000 6.077326 18.428108
						}
					}
				}
				JOINT RightShoulder
				{
					OFFSET -4.132702 0.575449 10.599197
					CHANNELS 3 Xrotation Yrotation Zrotation
					JOINT RightArm
					{
						OFFSET 0.000000 -0.000003 13.901802
						CHANNELS 3 Xrotation Yrotation Zrotation
						JOINT RightArmRoll
						{
							OFFSET 0.000000 -0.000001 7.017891
							CHANNELS 3 Xrotation Yrotation Zrotation
							JOINT RightForeArm
							{
								OFFSET 0.000000 -0.000003 20.440605
								CHANNELS 3 Xrotation Yrotation Zrotation
								JOINT RightForeArmRoll
								{
									OFFSET 0.000000 -0.000002 7.875153
									CHANNELS 3 Xrotation Yrotation Zrotation
									JOINT RightHand
									{
										OFFSET 0.000000 -0.000002 15.803696
										CHANNELS 3 Xrotation Yrotation Zrotation
										End Site
										{
											OFFSET 0.000000 0.000000 0.100006
										}
									}
								}
							}
						}
					}
				}
				JOINT LeftShoulder
				{
					OFFSET 4.132702 0.575449 10.599197
					CHANNELS 3 Xrotation Yrotation Zrotation
					JOINT LeftArm
					{
						OFFSET 0.000000 -0.000003 13.901802
						CHANNELS 3 Xrotation Yrotation Zrotation
						JOINT LeftArmRoll
						{
							OFFSET 0.000000 -0.000001 7.017891
							CHANNELS 3 Xrotation Yrotation Zrotation
							JOINT LeftForeArm
							{
								OFFSET 0.000000 -0.000003 20.440605
								CHANNELS 3 Xrotation Yrotation Zrotation
								JOINT LeftForeArmRoll
								{
									OFFSET 0.000000 -0.000002 7.875153
									CHANNELS 3 Xrotation Yrotation Zrotation
									JOINT LeftHand
									{
										OFFSET 0.000000 -0.000002 15.803696
										CHANNELS 3 Xrotation Yrotation Zrotation
										End Site
										{
											OFFSET 0.000000 0.000000 0.100006
										}
									}
								}
							}
						}
					}
				}
			}
		}
	}
	JOINT RightUpLeg
	{
		OFFSET -7.060482 1.086100 -1.294701
		CHANNELS 3 Xrotation Yrotation Zrotation
		JOINT RightUpLegRoll
		{
			OFFSET 0.000000 -0.000002 18.530796
			CHANNELS 3 Xrotation Yrotation Zrotation
			JOINT RightLeg
			{
				OFFSET 0.000000 0.000004 -22.947598
				CHANNELS 3 Xrotation Yrotation Zrotation
				JOINT RightLegRoll
				{
					OFFSET 0.000000 -0.000004 23.022594
					CHANNELS 3 Xrotation Yrotation Zrotation
					JOINT RightFoot
					{
						OFFSET 0.000000 -0.000004 19.162498
						CHANNELS 3 Xrotation Yrotation Zrotation
						JOINT RightToeBase
						{
							OFFSET 0.000000 -0.000002 16.018799
							CHANNELS 3 Xrotation Yrotation Zrotation
							End Site
							{
								OFFSET 0.006790 0.894203 7.757820
							}
						}
					}
				}
			}
		}
	}
	JOINT LeftUpLeg
	{
		OFFSET 7.060482 1.086100 -1.294701
		CHANNELS 3 Xrotation Yrotation Zrotation
		JOINT LeftUpLegRoll
		{
			OFFSET 0.000000 -0.000002 18.530895
			CHANNELS 3 Xrotation Yrotation Zrotation
			JOINT LeftLeg
			{
				OFFSET 0.000000 -0.000004 22.947502
				CHANNELS 3 Xrotation Yrotation Zrotation
				JOINT LeftLegRoll
				{
					OFFSET 0.000000 -0.000004 23.235504
					CHANNELS 3 Xrotation Yrotation Zrotation
					JOINT LeftFoot
					{
						OFFSET 0.000000 -0.000004 18.949600
						CHANNELS 3 Xrotation Yrotation Zrotation
						JOINT LeftToeBase
						{
							OFFSET 0.000000 -0.000002 16.018799
							CHANNELS 3 Xrotation Yrotation Zrotation
							End Site
							{
								OFFSET -0.030430 0.894203 7.757828
							}
						}
					}
				}
			}
		}
	}
}
MOTION
Frames: 10
Frame Time: 0.041667
53.135090 -28.913012 95.710602 0.336481 0.627668 2.842964 -2.096885 -0.105510 -0.102418 -0.191143 -0.207910 -0.207536 1.453930 -0.210688 -0.205123 18.057714 -2.020317 -1.253135 -1.157778 -0.455210 -1.220700 2.912208 -71.092017 1.748096 -53.712153 -116.328667 -35.658273 -0.000000 0.000000 0.000000 0.395435 -6.780533 -0.189532 -0.000003 0.000009 -2.999991 -5.000194 -7.999093 0.000088 1.151336 69.575018 0.006797 -47.645873 119.480417 28.326405 0.000003 -0.000004 -0.000001 0.015475 1.752420 -0.037788 0.000000 -0.000004 3.042230 -5.000176 7.999932 -0.000026 -2.777603 -177.513925 -3.538327 -179.999991 0.000005 -1.084001 172.516713 -1.938362 -0.752562 0.000002 0.000001 0.107569 69.580216 6.933785 1.963597 25.456953 -7.355615 0.000000 -2.400470 175.410022 1.443328 -0.000020 -0.000004 -1.084110 -6.810901 2.087607 0.344478 -0.000006 0.000003 -0.093192 69.372230 -6.930493 -1.995309 25.456955 7.355613 -0.000001 
53.122997 -28.892015 95.710999 0.363370 0.623055 2.837849 -2.097312 -0.103678 -0.107209 -0.191993 -0.204143 -0.217079 1.453080 -0.207013 -0.214702 18.050780 -2.017763 -1.255857 -1.140381 -0.438378 -1.224806 3.021166 -71.101497 1.866474 -53.758158 -116.349185 -35.702656 0.000001 0.000000 -0.000000 0.372011 -6.770621 -0.190720 -0.000000 0.000008 -2.999989 -5.000197 -7.999093 0.000088 1.142621 69.601178 0.019545 -47.741762 119.466251 28.417825 0.000002 -0.000003 -0.000001 0.015472 1.755071 -0.036740 0.000000 -0.000005 3.042229 -5.000174 7.999930 -0.000026 -2.839401 -177.517040 -3.554650 -179.999991 0.000005 -1.083004 172.484884 -1.921372 -0.753426 0.000002 0.000002 0.108413 69.579690 6.933801 1.964134 25.456955 -7.355615 0.000000 -2.483210 175.416292 1.452061 -0.000020 -0.000004 -1.083600 -6.879960 2.090303 0.347907 -0.000006 0.000003 -0.094766 69.391648 -6.930332 -1.995064 25.456948 7.355613 -0.000001 
53.121395 -28.865404 95.712006 0.390387 0.618703 2.832394 -2.098052 -0.101912 -0.112235 -0.193475 -0.200501 -0.227095 1.451599 -0.203469 -0.224754 18.046236 -2.014240 -1.258021 -1.123322 -0.421481 -1.228404 3.138814 -71.111572 1.994303 -53.804146 -116.368269 -35.745597 0.000001 -0.000000 0.000000 0.347768 -6.760379 -0.191939 -0.000001 0.000008 -2.999990 -5.000196 -7.999092 0.000087 1.133351 69.629639 0.033167 -47.842398 119.449203 28.513364 0.000001 -0.000003 -0.000001 0.015473 1.758462 -0.035475 0.000000 -0.000005 3.042239 -5.000176 7.999931 -0.000024 -2.900904 -177.520182 -3.573161 -179.999991 0.000005 -1.082006 172.453370 -1.903384 -0.754114 0.000002 0.000002 0.109289 69.579588 6.933796 1.964638 25.456955 -7.355616 0.000001 -2.567955 175.421593 1.460300 -0.000020 -0.000004 -1.083090 -6.952712 2.093475 0.351541 -0.000006 0.000003 -0.096462 69.413252 -6.930117 -1.994773 25.456950 7.355613 0.000000 
53.119095 -28.842607 95.682816 0.417491 0.614529 2.826722 -2.099013 -0.100191 -0.117427 -0.195400 -0.196945 -0.237442 1.449669 -0.200013 -0.235136 18.043388 -2.010041 -1.259798 -1.106476 -0.404539 -1.231663 3.262561 -71.121865 2.128771 -53.852486 -116.385713 -35.790266 0.000002 -0.000000 -0.000001 0.322954 -6.749906 -0.193174 -0.000000 0.000009 -2.999990 -5.000193 -7.999094 0.000089 1.123680 69.659617 0.047420 -47.945473 119.430775 28.610793 0.000002 -0.000003 -0.000000 0.015481 1.762382 -0.034060 -0.000000 -0.000006 3.042239 -5.000173 7.999932 -0.000027 -2.962202 -177.525305 -3.593106 -179.999991 0.000005 -1.082006 172.422115 -1.883422 -0.754509 0.000002 0.000001 0.110186 69.579800 6.933804 1.965127 25.456955 -7.355614 0.000000 -2.654103 175.426893 1.468165 -0.000020 -0.000004 -1.082600 -7.028060 2.096979 0.355322 -0.000006 0.000003 -0.098243 69.436263 -6.929912 -1.994398 25.456948 7.355613 0.000001 
53.116898 -28.820116 95.688309 0.444643 0.610456 2.820923 -2.100093 -0.098496 -0.122713 -0.197577 -0.193438 -0.247978 1.447499 -0.196609 -0.245707 18.041531 -2.005440 -1.261358 -1.089777 -0.387572 -1.234733 3.389857 -71.132315 2.267099 -53.900038 -116.402802 -35.833508 0.000001 0.000000 -0.000000 0.297812 -6.739312 -0.194416 -0.000001 0.000008 -2.999990 -5.000197 -7.999094 0.000089 1.113769 69.690585 0.062043 -48.051019 119.410995 28.710536 0.000004 -0.000004 -0.000002 0.015484 1.766590 -0.032553 -0.000001 -0.000005 3.042252 -5.000174 7.999931 -0.000024 -3.023373 -177.531438 -3.613871 -179.999991 0.000005 -1.080995 172.391010 -1.862460 -0.754760 0.000002 0.000002 0.111097 69.580216 6.933785 1.965597 25.456953 -7.355617 0.000000 -2.741062 175.431223 1.475868 -0.000020 -0.000005 -1.082110 -7.104879 2.100670 0.359193 -0.000006 0.000003 -0.100072 69.460196 -6.929664 -1.994156 25.456950 7.355613 -0.000001 
53.102196 -28.798201 95.671906 0.471811 0.606402 2.815087 -2.101212 -0.096807 -0.128022 -0.199818 -0.189943 -0.258562 1.445258 -0.193216 -0.256324 18.039877 -2.000751 -1.262857 -1.073104 -0.370600 -1.237752 3.518171 -71.142772 2.406530 -53.947409 -116.419823 -35.876392 0.000000 0.000000 -0.000001 0.272591 -6.728678 -0.195652 -0.000003 0.000009 -2.999991 -5.000196 -7.999092 0.000087 1.103775 69.721745 0.076788 -48.156689 119.391311 28.810230 0.000003 -0.000003 -0.000002 0.015492 1.770881 -0.031027 -0.000000 -0.000005 3.042250 -5.000176 7.999932 -0.000025 -3.084516 -177.537585 -3.634841 -179.999991 0.000005 -1.079998 172.359933 -1.841516 -0.754974 0.000002 0.000002 0.112009 69.580647 6.933802 1.966075 25.456955 -7.355616 0.000000 -2.828209 175.436537 1.483453 -0.000020 -0.000004 -1.081620 -7.182080 2.104394 0.363095 -0.000006 0.000002 -0.101913 69.484259 -6.929439 -1.993809 25.456950 7.355613 -0.000000 
53.102695 -28.777411 95.670807 0.498951 0.602292 2.809325 -2.102271 -0.095105 -0.133284 -0.201933 -0.186422 -0.269050 1.443138 -0.189798 -0.266847 18.037823 -1.996257 -1.264459 -1.056360 -0.353643 -1.240881 3.644884 -71.152963 2.544217 -53.994985 -116.437021 -35.919859 -0.000001 0.000000 0.000001 0.247530 -6.718110 -0.196870 -0.000000 0.000008 -2.999990 -5.000192 -7.999095 0.000088 1.093858 69.752405 0.091399 -48.262492 119.371722 28.910374 -0.000001 -0.000004 -0.000003 0.015496 1.775021 -0.029543 0.000000 -0.000005 3.042252 -5.000177 7.999930 -0.000026 -3.145710 -177.542708 -3.655426 -179.999991 0.000005 -1.079998 172.328801 -1.820572 -0.756178 0.000002 0.000002 0.112915 69.580968 6.933815 1.966555 25.456952 -7.355616 0.000000 -2.914953 175.441878 1.491131 -0.000020 -0.000005 -1.081130 -7.258537 2.108026 0.366967 -0.000006 0.000002 -0.103730 69.507898 -6.929218 -1.993491 25.456952 7.355613 -0.000000 
53.125595 -28.744310 95.739807 0.526031 0.598045 2.803740 -2.103172 -0.093370 -0.138428 -0.203731 -0.182838 -0.279302 1.441338 -0.186314 -0.277134 18.034476 -1.992244 -1.266354 -1.039468 -0.336722 -1.244279 3.767435 -71.162853 2.677373 -54.041584 -116.455217 -35.962879 0.000001 -0.000000 0.000001 0.222885 -6.707703 -0.198062 0.000001 0.000008 -2.999990 -5.000197 -7.999093 0.000088 1.084185 69.781973 0.105600 -48.366048 119.353717 29.008572 0.000001 -0.000004 -0.000003 0.015505 1.778792 -0.028171 0.000002 -0.000005 3.042258 -5.000176 7.999931 -0.000024 -3.207054 -177.547844 -3.674907 -179.999991 0.000005 -1.079000 172.297464 -1.801608 -0.756623 0.000002 0.000001 0.113806 69.581166 6.933788 1.967040 25.456953 -7.355615 0.000000 -3.000691 175.447219 1.499054 -0.000020 -0.000004 -1.080630 -7.333136 2.111405 0.370748 -0.000005 0.000003 -0.105486 69.530486 -6.929006 -1.993243 25.456950 7.355614 -0.000001 
53.145596 -28.732210 95.724808 0.553008 0.593582 2.798410 -2.103811 -0.091583 -0.143384 -0.205023 -0.179155 -0.289174 1.440048 -0.182726 -0.287043 18.029234 -1.989013 -1.268676 -1.022305 -0.319858 -1.248098 3.883199 -71.172108 2.803138 -54.086154 -116.475298 -36.004656 -0.000001 0.000000 0.000001 0.198896 -6.697564 -0.199216 0.000000 0.000008 -2.999990 -5.000196 -7.999092 0.000088 1.074924 69.809731 0.119123 -48.466186 119.338008 29.103918 0.000001 -0.000003 -0.000002 0.015503 1.781960 -0.026975 0.000002 -0.000006 3.042258 -5.000176 7.999931 -0.000027 -3.268634 -177.550986 -3.692751 -179.999991 0.000005 -1.078003 172.265868 -1.783632 -0.757203 0.000002 0.000001 0.114672 69.580954 6.933779 1.967550 25.456955 -7.355615 0.000000 -3.084835 175.452574 1.507375 -0.000020 -0.000005 -1.080120 -7.404789 2.114395 0.374376 -0.000005 0.000002 -0.107145 69.551482 -6.928792 -1.992990 25.456947 7.355613 -0.000000 
53.135994 -28.704313 95.742004 0.579851 0.588825 2.793461 -2.104114 -0.089725 -0.148081 -0.205621 -0.175335 -0.298525 1.439447 -0.178997 -0.296433 18.021306 -1.986849 -1.271604 -1.004785 -0.303071 -1.252496 3.989580 -71.180598 2.918687 -54.132186 -116.496239 -36.049653 0.000001 0.000000 0.000001 0.175808 -6.687782 -0.200323 -0.000001 0.000007 -2.999989 -5.000196 -7.999093 0.000088 1.066235 69.834989 0.131725 -48.561655 119.325331 29.195463 0.000003 -0.000004 0.000000 0.015499 1.784310 -0.026016 0.000001 -0.000005 3.042259 -5.000175 7.999932 -0.000025 -3.330524 -177.554142 -3.708181 -179.999991 0.000005 -1.077006 172.233875 -1.768635 -0.758167 0.000002 0.000001 0.115505 69.580230 6.933819 1.968004 25.456953 -7.355616 0.000000 -3.166759 175.458913 1.516199 -0.000020 -0.000004 -1.079610 -7.472368 2.116857 0.377788 -0.000005 0.000003 -0.108671 69.570060 -6.928610 -1.992797 25.456952 7.355613 -0.000000 
